<svg width="35" height="35" viewBox="0 0 35 35" fill="none" xmlns="http://www.w3.org/2000/svg">
<path d="M4.55556 5C3.69645 5 3 5.79949 3 6.78571C3 7.77194 3.69645 8.57143 4.55556 8.57143H29.4444C30.3036 8.57143 31 7.77194 31 6.78571C31 5.79949 30.3036 5 29.4444 5H4.55556Z" fill="#604141" fill-opacity="0.64"/>
<path d="M4.55556 12.1429C3.69645 12.1429 3 12.9423 3 13.9286C3 14.9148 3.69645 15.7143 4.55556 15.7143H17C17.8591 15.7143 18.5556 14.9148 18.5556 13.9286C18.5556 12.9423 17.8591 12.1429 17 12.1429H4.55556Z" fill="#604141" fill-opacity="0.64"/>
<path d="M3 21.0714C3 20.0852 3.69645 19.2857 4.55556 19.2857H29.4444C30.3036 19.2857 31 20.0852 31 21.0714C31 22.0577 30.3036 22.8571 29.4444 22.8571H4.55556C3.69645 22.8571 3 22.0577 3 21.0714Z" fill="#604141" fill-opacity="0.64"/>
<path d="M4.55556 26.4286C3.69645 26.4286 3 27.2281 3 28.2143C3 29.2005 3.69645 30 4.55556 30H17C17.8591 30 18.5556 29.2005 18.5556 28.2143C18.5556 27.2281 17.8591 26.4286 17 26.4286H4.55556Z" fill="#604141" fill-opacity="0.64"/>
</svg>
