<svg width="35" height="35" viewBox="0 0 35 35" fill="none" xmlns="http://www.w3.org/2000/svg">
<path fill-rule="evenodd" clip-rule="evenodd" d="M28 4H7C5.34315 4 4 5.34315 4 7V28C4 29.6569 5.34315 31 7 31H28C29.6569 31 31 29.6569 31 28V7C31 5.34315 29.6569 4 28 4ZM7 1C3.68629 1 1 3.68629 1 7V28C1 31.3137 3.68629 34 7 34H28C31.3137 34 34 31.3137 34 28V7C34 3.68629 31.3137 1 28 1H7Z" fill="#D64747" fill-opacity="0.7"/>
<path d="M23.5 17.5L14.5 23.9952V11.0048L23.5 17.5Z" fill="#D64747" fill-opacity="0.7"/>
</svg>
