<svg id="SvgjsSvg1001" width="288" height="288" xmlns="http://www.w3.org/2000/svg" version="1.1" xmlns:xlink="http://www.w3.org/1999/xlink" xmlns:svgjs="http://svgjs.com/svgjs"><defs id="SvgjsDefs1002"></defs><g id="SvgjsG1008" transform="matrix(1,0,0,1,0,0)"><svg xmlns="http://www.w3.org/2000/svg" width="288" height="288" fill="none" viewBox="0 0 45 45"><path fill="#854dce" fill-rule="evenodd" d="M38.1364 6.2H6.86364C5.78417 6.2 4.90909 7.1402 4.90909 8.3V37.7C4.90909 38.8598 5.78417 39.8 6.86364 39.8H38.1364C39.2158 39.8 40.0909 38.8598 40.0909 37.7V8.3C40.0909 7.1402 39.2158 6.2 38.1364 6.2ZM6.86364 2C3.62524 2 1 4.82061 1 8.3V37.7C1 41.1794 3.62524 44 6.86364 44H38.1364C41.3748 44 44 41.1794 44 37.7V8.3C44 4.82061 41.3748 2 38.1364 2H6.86364ZM10.7727 12.5H14.6818V16.7H10.7727V12.5ZM20.5455 12.5C19.466 12.5 18.5909 13.4402 18.5909 14.6C18.5909 15.7598 19.466 16.7 20.5455 16.7H32.2727C33.3522 16.7 34.2273 15.7598 34.2273 14.6C34.2273 13.4402 33.3522 12.5 32.2727 12.5H20.5455ZM14.6818 20.9H10.7727V25.1H14.6818V20.9ZM18.5909 23C18.5909 21.8402 19.466 20.9 20.5455 20.9H32.2727C33.3522 20.9 34.2273 21.8402 34.2273 23C34.2273 24.1598 33.3522 25.1 32.2727 25.1H20.5455C19.466 25.1 18.5909 24.1598 18.5909 23ZM14.6818 29.3H10.7727V33.5H14.6818V29.3ZM18.5909 31.4C18.5909 30.2402 19.466 29.3 20.5455 29.3H32.2727C33.3522 29.3 34.2273 30.2402 34.2273 31.4C34.2273 32.5598 33.3522 33.5 32.2727 33.5H20.5455C19.466 33.5 18.5909 32.5598 18.5909 31.4Z" clip-rule="evenodd" class="color179F97 svgShape"></path></svg></g></svg>